{
   "accessors" : [
      {
         "bufferView" : 0,
         "byteOffset" : 0,
         "componentType" : 5123,
         "count" : 1428,
         "max" : [ 833 ],
         "min" : [ 0 ],
         "name" : "buffer-0-group-0-mesh-0-indices",
         "type" : "SCALAR"
      },
      {
         "bufferView" : 1,
         "byteOffset" : 0,
         "componentType" : 5126,
         "count" : 834,
         "max" : [ 1.782981991767883, 1.936048984527588, 4.741549015045166 ],
         "min" : [ -1.782719016075134, -2.626081943511963, -4.447076797485352 ],
         "name" : "buffer-0-group-0-mesh-0-position",
         "type" : "VEC3"
      },
      {
         "bufferView" : 1,
         "byteOffset" : 10008,
         "componentType" : 5126,
         "count" : 834,
         "max" : [ 1, 0.9983165264129639, 0.9992625117301941 ],
         "min" : [ -1, -1, -0.984815776348114 ],
         "name" : "buffer-0-group-0-mesh-0-normal",
         "type" : "VEC3"
      },
      {
         "bufferView" : 0,
         "byteOffset" : 2856,
         "componentType" : 5123,
         "count" : 180,
         "max" : [ 107 ],
         "min" : [ 0 ],
         "name" : "buffer-0-group-1-mesh-0-indices",
         "type" : "SCALAR"
      },
      {
         "bufferView" : 1,
         "byteOffset" : 20016,
         "componentType" : 5126,
         "count" : 108,
         "max" : [ 0.6047369837760925, 1.01491105556488, 3.476227045059204 ],
         "min" : [ -1.13156795501709, -1.393105030059814, -4.620777130126953 ],
         "name" : "buffer-0-group-1-mesh-0-position",
         "type" : "VEC3"
      },
      {
         "bufferView" : 1,
         "byteOffset" : 21312,
         "componentType" : 5126,
         "count" : 108,
         "max" : [ 0.9999797940254211, 0.9285456538200378, 0.9284421801567078 ],
         "min" : [ -0.9999797940254211, -0.9285456538200378, -0.9245786666870117 ],
         "name" : "buffer-0-group-1-mesh-0-normal",
         "type" : "VEC3"
      },
      {
         "bufferView" : 0,
         "byteOffset" : 3216,
         "componentType" : 5123,
         "count" : 444,
         "max" : [ 259 ],
         "min" : [ 0 ],
         "name" : "buffer-0-group-2-mesh-0-indices",
         "type" : "SCALAR"
      },
      {
         "bufferView" : 1,
         "byteOffset" : 22608,
         "componentType" : 5126,
         "count" : 260,
         "max" : [ 1.28249204158783, 2.664267063140869, 4.094639778137207 ],
         "min" : [ -1.28249204158783, 0.2857069969177246, -4.296177864074707 ],
         "name" : "buffer-0-group-2-mesh-0-position",
         "type" : "VEC3"
      },
      {
         "bufferView" : 1,
         "byteOffset" : 25728,
         "componentType" : 5126,
         "count" : 260,
         "max" : [ 0.9699008464813232, 0.9929899573326111, 0.9238266348838806 ],
         "min" : [ -0.9699008464813232, -0.9900094270706177, -0.99330735206604 ],
         "name" : "buffer-0-group-2-mesh-0-normal",
         "type" : "VEC3"
      }
   ],
   "asset" : {
      "extras" : {
         "GOOGLE_processor_version" : 293297437
      },
      "generator" : "Obj2GltfConverter",
      "version" : "2.0"
   },
   "bufferViews" : [
      {
         "buffer" : 0,
         "byteLength" : 4104,
         "byteOffset" : 0,
         "name" : "buffer-0-bufferview-ushort",
         "target" : 34963
      },
      {
         "buffer" : 0,
         "byteLength" : 28848,
         "byteOffset" : 4104,
         "byteStride" : 12,
         "name" : "buffer-0-bufferview-vec3",
         "target" : 34962
      }
   ],
   "buffers" : [
      {
         "byteLength" : 32952,
         "name" : "buffer-0",
         "uri" : "Motorcycle.bin"
      }
   ],
   "cameras" : [
      {
         "perspective" : {
            "yfov" : 0.7853981633974483,
            "znear" : 0.1000000014901161
         },
         "type" : "perspective"
      }
   ],
   "extensions" : {
      "KHR_lights_punctual" : {
         "lights" : [
            {
               "color" : [ 1, 0.9333333333333333, 0.8666666666666667 ],
               "intensity" : 0.25,
               "name" : "headLight",
               "type" : "directional"
            },
            {
               "color" : [ 1, 0.9333333333333333, 0.8666666666666667 ],
               "intensity" : 0.324999988079071,
               "name" : "keyLight",
               "type" : "directional"
            }
         ]
      }
   },
   "extensionsUsed" : [ "GOOGLE_backgrounds", "GOOGLE_camera_settings", "KHR_lights_punctual" ],
   "extras" : {
      "GOOGLE_initial_camera_motion" : {
         "motionPath" : "FULL_ROTATION"
      },
      "GOOGLE_lighting_rig" : {
         "disableShadows" : false
      }
   },
   "materials" : [
      {
         "alphaMode" : "OPAQUE",
         "doubleSided" : true,
         "name" : "Black",
         "pbrMetallicRoughness" : {
            "baseColorFactor" : [ 0.023278, 0.023278, 0.023278, 1 ],
            "metallicFactor" : 0,
            "roughnessFactor" : 0.7448017359246658
         }
      },
      {
         "alphaMode" : "OPAQUE",
         "doubleSided" : true,
         "name" : "Silver",
         "pbrMetallicRoughness" : {
            "baseColorFactor" : [ 0.578424, 0.578424, 0.578424, 1 ],
            "metallicFactor" : 0,
            "roughnessFactor" : 0.7448017359246658
         }
      },
      {
         "alphaMode" : "OPAQUE",
         "doubleSided" : true,
         "name" : "Blue",
         "pbrMetallicRoughness" : {
            "baseColorFactor" : [ 0.074318, 0.14338, 0.254825, 1 ],
            "metallicFactor" : 0,
            "roughnessFactor" : 0.7448017359246658
         }
      }
   ],
   "meshes" : [
      {
         "name" : "buffer-0-mesh-0",
         "primitives" : [
            {
               "attributes" : {
                  "NORMAL" : 2,
                  "POSITION" : 1
               },
               "indices" : 0,
               "material" : 0,
               "mode" : 4
            },
            {
               "attributes" : {
                  "NORMAL" : 5,
                  "POSITION" : 4
               },
               "indices" : 3,
               "material" : 1,
               "mode" : 4
            },
            {
               "attributes" : {
                  "NORMAL" : 8,
                  "POSITION" : 7
               },
               "indices" : 6,
               "material" : 2,
               "mode" : 4
            }
         ]
      }
   ],
   "nodes" : [
      {
         "mesh" : 0,
         "name" : "node-0"
      },
      {
         "children" : [ 2 ]
      },
      {
         "children" : [ 3 ],
         "extras" : {
            "isTransformNode" : 1
         },
         "translation" : [ -0.08712074974232854, 0.2837742593726897, 0.2016719551953403 ]
      },
      {
         "children" : [ 0 ],
         "translation" : [ 0.08712074974232854, -0.2837742593726897, -0.2016719551953403 ]
      },
      {
         "camera" : 0,
         "children" : [ 5 ],
         "rotation" : [
            -0.1059845578265459,
            -0.4545189843487144,
            -0.05457197652694098,
            0.8827240031554983
         ],
         "translation" : [ -12.46428805797777, 3.99247275367151, 9.043396829311657 ]
      },
      {
         "extensions" : {
            "KHR_lights_punctual" : {
               "light" : 0
            }
         },
         "extras" : {
            "isHeadLight" : 1
         },
         "name" : "headLightNode",
         "translation" : [ -5.693327486526344, 2.846663743263172, 2.846663743263172 ]
      },
      {
         "extensions" : {
            "KHR_lights_punctual" : {
               "light" : 1
            }
         },
         "extras" : {
            "isKeyLight" : 1
         },
         "name" : "keyLightNode",
         "rotation" : [ -0.7505326882858236, -0.3752663441429118, 0, 0.5439447166468927 ],
         "scale" : [ 0, 0, 5.750260761391607 ],
         "translation" : [ -5.77625834530248, 11.38234161567521, -5.294056023750398 ]
      }
   ],
   "scene" : 0,
   "scenes" : [
      {
         "extensions" : {
            "GOOGLE_backgrounds" : {
               "color" : [ 0.9333333333333333, 0.9333333333333333, 0.9333333333333333 ]
            },
            "GOOGLE_camera_settings" : {
               "pivot" : [ -0.08698358429816189, 0.2877387813435726, 0.2109466303400964 ]
            }
         },
         "extras" : {
            "GOOGLE_camera_index" : {
               "cameraIndex" : 0,
               "nodeIndex" : 4
            },
            "GOOGLE_geometry_data" : {
               "stats" : {
                  "centroid" : [ -0.02599758391087246, -0.1181799071080078, 0.4562047376412087 ],
                  "radius" : 5.693327486526344,
                  "stdev" : 3.241304041218567
               },
               "visualCenterPoint" : [ -0.08712074974232854, 0.2837742593726897, 0.2016719551953403 ]
            },
            "GOOGLE_hemi_light" : {
               "groundColor" : [ 0.9333333333333333, 0.9333333333333333, 0.9333333333333333 ]
            }
         },
         "name" : "scene-0",
         "nodes" : [ 1, 4, 6 ]
      }
   ]
}
